<svg width="34" height="22" fill="none" xmlns="http://www.w3.org/2000/svg"><path d="m22.426 5.433-4.845-1.454a3.426 3.426 0 0 0-1.108-.133v-.013h-5.89L.14.363.17 15.038l2.998 1.498 1.775-4.34 2.593 1.038.673-1.68.973.974-.908.908a1.695 1.695 0 0 0 1.14 2.89 1.692 1.692 0 0 0 1.63 1.63 1.693 1.693 0 0 0 1.63 1.63 1.695 1.695 0 0 0 1.69 1.636c.446 0 .883-.18 1.199-.497l.909-.908.365.365c.316.316.752.497 1.199.497.915 0 1.658-.73 1.69-1.636a1.693 1.693 0 0 0 1.63-1.63 1.692 1.692 0 0 0 1.63-1.63 1.695 1.695 0 0 0 1.637-1.69c0-.078-.013-.154-.023-.23l.78-.78.63 1.26 3.413-1.707 2.063 3.939 2.374-1.583V.947L22.426 5.433ZM2.606 15.04l-1.349-.675L1.23 1.87l5.954 1.98-4.578 11.19Zm4.326-3.219-1.577-.63 2.863-6.998 1.558.518-2.844 7.11Zm1.933 2.815c0-.16.065-.318.178-.431l.956-.956a.61.61 0 0 1 .862.862l-.956.956a.61.61 0 0 1-1.04-.43Zm1.63 1.63c0-.16.065-.317.178-.431l.956-.955a.61.61 0 0 1 .862.862l-.956.955a.61.61 0 0 1-1.04-.43Zm1.63 1.63c0-.16.065-.317.178-.431l.956-.955a.61.61 0 0 1 .862.862l-.956.955a.61.61 0 0 1-1.04-.43Zm3.626 1.106-.955.955a.61.61 0 0 1-.862-.862l.955-.955a.61.61 0 0 1 .862.862Zm7.177-4.3a.613.613 0 0 1-.431-.179L17.944 9.97l-.769.768 4.553 4.553a.61.61 0 0 1-.862.862L16.313 11.6l-.768.768 4.553 4.554a.61.61 0 0 1-.862.862l-4.553-4.554-.768.769 4.553 4.553a.61.61 0 0 1-.862.862l-.613-.613c.011-.076.023-.152.023-.23 0-.915-.73-1.658-1.636-1.69a1.692 1.692 0 0 0-1.63-1.63 1.692 1.692 0 0 0-1.63-1.63 1.695 1.695 0 0 0-1.69-1.637c-.078 0-.154.013-.23.023l-1.552-1.551 2.215-5.536h3.211l-1.995 1.996a1.698 1.698 0 0 0 2.398 2.398l1.44-1.44a.836.836 0 0 1 1.12-.024l1.27 1.165a6.14 6.14 0 0 0 1.393.96l3.659 3.686a.61.61 0 0 1-.43 1.04Zm1.152-1.856-2.233-2.25c.2.018.4.03.603.03V9.539a5.032 5.032 0 0 1-3.408-1.326l-1.27-1.164c-.718-.658-1.935-.632-2.623.057l-1.44 1.44a.61.61 0 0 1-.863-.862l2.072-2.071a2.38 2.38 0 0 1 2.35-.593l4.8 1.44 2.8 5.599-.788.787Zm2.417.04-3.295-6.59 2.406-.944 3.312 6.322-2.423 1.211Zm6.278 1.525-.886.59-5.263-10.048 6.149-2.412v11.87Z" fill="#E3B873"/></svg>