<svg width="33" height="33" fill="none" xmlns="http://www.w3.org/2000/svg"><path fill-rule="evenodd" clip-rule="evenodd" d="M3.25 1.254a.39.39 0 0 1 .398-.381h28.664a.39.39 0 0 1 .398.381v27.623a.39.39 0 0 1-.398.382.39.39 0 0 1-.398-.382V1.637H3.648a.39.39 0 0 1-.398-.383Z" fill="#fff" stroke="#fff" stroke-width=".5" stroke-linecap="round" stroke-linejoin="round"/><path d="M3.668 29.435h.125V5.55l1.626 1.627a.52.52 0 1 0 .735-.736L3.641 3.928a.52.52 0 0 0-.736 0L.392 6.44a.52.52 0 0 0 .735.736L2.753 5.55v23.884h.915Z" fill="#fff" stroke="#fff" stroke-width=".25"/><path d="M2.752 29.705v.125H26.76l-1.634 1.625a.518.518 0 0 0 0 .736.523.523 0 0 0 .738 0l2.527-2.514a.518.518 0 0 0 0-.735l-2.527-2.514a.523.523 0 0 0-.738 0 .518.518 0 0 0 0 .736l1.634 1.626H2.752v.915Z" fill="#fff" stroke="#fff" stroke-width=".25"/><path fill-rule="evenodd" clip-rule="evenodd" d="M14.162.988a.395.395 0 0 1 0 .559l-4.739 4.74a.395.395 0 1 1-.559-.56l4.74-4.739a.395.395 0 0 1 .559 0ZM32.462 19.815a.395.395 0 0 1 0 .558l-4.344 4.345a.395.395 0 1 1-.559-.558l4.345-4.345a.395.395 0 0 1 .558 0ZM20.085.986a.395.395 0 0 1 .004.559l-10.27 10.4a.395.395 0 0 1-.561-.554L19.526.99a.395.395 0 0 1 .56-.004ZM32.594 13.231a.395.395 0 0 1 0 .559L22.588 23.796a.395.395 0 1 1-.558-.559l10.005-10.006a.395.395 0 0 1 .559 0ZM26.409 1.122a.395.395 0 0 1-.005.558L9.947 17.874a.395.395 0 0 1-.554-.563L25.85 1.117a.395.395 0 0 1 .558.005ZM32.594 7.044a.395.395 0 0 1 0 .558L16.006 24.191a.395.395 0 1 1-.559-.559L32.035 7.044a.395.395 0 0 1 .56 0ZM32.33 1.12a.395.395 0 0 1 0 .558L9.687 24.322a.395.395 0 0 1-.558-.558L31.772 1.119a.395.395 0 0 1 .559 0Z" fill="#fff" stroke="#fff" stroke-width=".5" stroke-linecap="round" stroke-linejoin="round"/></svg>